<?xml version="1.0" encoding="UTF-8"?>
<svg width="708px" height="107px" viewBox="0 0 708 107" version="1.1" xmlns="http://www.w3.org/2000/svg" xmlns:xlink="http://www.w3.org/1999/xlink">
    <!-- Generator: Sketch 42 (36781) - http://www.bohemiancoding.com/sketch -->
    <title>logo1</title>
    <desc>Created with Sketch.</desc>
    <defs></defs>
    <g id="Page-1" stroke="none" stroke-width="1" fill="none" fill-rule="evenodd">
        <g id="Group-5">
            <path d="M21.824,91 L0.8,91 L0.8,1.72 C44.288,-3.608 64.592,6.616 64.592,30.088 C64.592,52.12 46.592,62.776 21.824,66.376 L21.824,91 Z M44,34.408 C44,47.656 36.656,51.4 21.824,49.24 L21.824,17.992 C36.512,16.696 44,22.168 44,34.408 Z M119.6,17.992 L119.6,74.728 L139.472,74.728 L138.032,91 L79.424,91 L79.424,74.728 L98.432,74.728 L98.432,17.992 L79.424,17.992 L79.424,1.72 L138.608,1.72 L138.608,17.992 L119.6,17.992 Z M202.112,91 L176.192,41.32 L175.472,41.32 L176.336,91 L156.896,91 L156.896,1.72 L175.328,1.72 L200.096,51.4 L200.672,51.4 L199.808,1.72 L219.248,1.72 L219.248,91 L202.112,91 Z M298.592,89.704 C255.824,99.208 233.936,81.784 233.936,48.808 C233.936,22.312 248.048,1.288 293.264,0.28 L294.56,20.44 C259.856,17.704 255.536,28.648 255.536,45.496 C255.536,65.08 262.448,75.016 280.304,75.88 C279.872,67.528 279.44,55.288 279.296,46.36 L298.448,46.36 C298.448,64.648 298.592,78.04 298.592,89.704 Z M357.2,91 L335.888,91 L335.888,61.624 L307.808,2.152 L330.128,1.288 L347.12,41.464 L363.248,1.72 L384.992,1.72 L357.2,61.192 L357.2,91 Z M535.616,73.72 L533.888,91.576 C487.232,95.896 473.264,74.872 473.264,47.512 C473.264,22.312 488.672,0.568 533.6,0.28 L534.752,20.44 C500.192,18.712 495.296,26.344 495.296,44.776 C495.296,67.672 504.656,75.448 535.616,73.72 Z M614.672,91 L557.936,91 L557.936,1.72 L579.248,1.72 L579.248,73.432 L616.4,73.432 L614.672,91 Z M688,74.728 L693.872,74.728 L693.783504,75.728 L694.872,75.728 L694.783504,76.728 L695.872,76.728 L695.783504,77.728 L696.872,77.728 L696.783504,78.728 L697.872,78.728 L697.783504,79.728 L698.872,79.728 L698.783504,80.728 L699.872,80.728 L699.783504,81.728 L700.872,81.728 L700.783504,82.728 L701.872,82.728 L701.783504,83.728 L702.872,83.728 L702.783504,84.728 L703.872,84.728 L703.783504,85.728 L704.872,85.728 L704.783504,86.728 L705.872,86.728 L705.783504,87.728 L706.872,87.728 L706.783504,88.728 L707.872,88.728 L706.432,105 L647.824,105 L647.824,104 L646.824,104 L646.824,103 L645.824,103 L645.824,102 L644.824,102 L644.824,101 L643.824,101 L643.824,100 L642.824,100 L642.824,99 L641.824,99 L641.824,98 L640.824,98 L640.824,97 L639.824,97 L639.824,96 L638.824,96 L638.824,95 L637.824,95 L637.824,94 L636.824,94 L636.824,93 L635.824,93 L635.824,92 L634.824,92 L634.824,91 L633.824,91 L633.824,74.728 L652.832,74.728 L652.832,31.992 L647.824,31.992 L647.824,30.992 L646.824,30.992 L646.824,29.992 L645.824,29.992 L645.824,28.992 L644.824,28.992 L644.824,27.992 L643.824,27.992 L643.824,26.992 L642.824,26.992 L642.824,25.992 L641.824,25.992 L641.824,24.992 L640.824,24.992 L640.824,23.992 L639.824,23.992 L639.824,22.992 L638.824,22.992 L638.824,21.992 L637.824,21.992 L637.824,20.992 L636.824,20.992 L636.824,19.992 L635.824,19.992 L635.824,18.992 L634.824,18.992 L634.824,17.992 L633.824,17.992 L633.824,1.72 L693.008,1.72 L693.008,2.72 L694.008,2.72 L694.008,3.72 L695.008,3.72 L695.008,4.72 L696.008,4.72 L696.008,5.72 L697.008,5.72 L697.008,6.72 L698.008,6.72 L698.008,7.72 L699.008,7.72 L699.008,8.72 L700.008,8.72 L700.008,9.72 L701.008,9.72 L701.008,10.72 L702.008,10.72 L702.008,11.72 L703.008,11.72 L703.008,12.72 L704.008,12.72 L704.008,13.72 L705.008,13.72 L705.008,14.72 L706.008,14.72 L706.008,15.72 L707.008,15.72 L707.008,31.992 L688,31.992 L688,74.728 L688,74.728 Z M571.936,104 L570.936,104 L570.936,103 L569.936,103 L569.936,102 L568.936,102 L568.936,101 L567.936,101 L567.936,100 L566.936,100 L566.936,99 L565.936,99 L565.936,98 L564.936,98 L564.936,97 L563.936,97 L563.936,96 L562.936,96 L562.936,95 L561.936,95 L561.936,94 L560.936,94 L560.936,93 L559.936,93 L559.936,92 L558.936,92 L558.936,2.72 L580.248,2.72 L580.248,3.72 L581.248,3.72 L581.248,4.72 L582.248,4.72 L582.248,5.72 L583.248,5.72 L583.248,6.72 L584.248,6.72 L584.248,7.72 L585.248,7.72 L585.248,8.72 L586.248,8.72 L586.248,9.72 L587.248,9.72 L587.248,10.72 L588.248,10.72 L588.248,11.72 L589.248,11.72 L589.248,12.72 L590.248,12.72 L590.248,13.72 L591.248,13.72 L591.248,14.72 L592.248,14.72 L592.248,15.72 L593.248,15.72 L593.248,74.432 L617.4,74.432 L617.301639,75.432 L618.4,75.432 L618.301639,76.432 L619.4,76.432 L619.301639,77.432 L620.4,77.432 L620.301639,78.432 L621.4,78.432 L621.301639,79.432 L622.4,79.432 L622.301639,80.432 L623.4,80.432 L623.301639,81.432 L624.4,81.432 L624.301639,82.432 L625.4,82.432 L625.301639,83.432 L626.4,83.432 L626.301639,84.432 L627.4,84.432 L627.301639,85.432 L628.4,85.432 L628.301639,86.432 L629.4,86.432 L629.301639,87.432 L630.4,87.432 L628.672,105 L571.936,105 L571.936,104 Z M511.056831,72.6464166 C517.170173,74.7357916 525.501109,75.340366 536.616,74.72 L536.513618,75.7779513 C536.877998,75.7600021 537.245452,75.7406817 537.616,75.72 L537.513618,76.7779513 C537.877998,76.7600021 538.245452,76.7406817 538.616,76.72 L538.513618,77.7779513 C538.877998,77.7600021 539.245452,77.7406817 539.616,77.72 L539.513618,78.7779513 C539.877998,78.7600021 540.245452,78.7406817 540.616,78.72 L540.513618,79.7779513 C540.877998,79.7600021 541.245452,79.7406817 541.616,79.72 L541.513618,80.7779513 C541.877998,80.7600021 542.245452,80.7406817 542.616,80.72 L542.513618,81.7779513 C542.877998,81.7600021 543.245452,81.7406817 543.616,81.72 L543.513618,82.7779513 C543.877998,82.7600021 544.245452,82.7406817 544.616,82.72 L544.513618,83.7779513 C544.877998,83.7600021 545.245452,83.7406817 545.616,83.72 L545.513618,84.7779513 C545.877998,84.7600021 546.245452,84.7406817 546.616,84.72 L546.513618,85.7779513 C546.877998,85.7600021 547.245452,85.7406817 547.616,85.72 L547.513618,86.7779513 C547.877998,86.7600021 548.245452,86.7406817 548.616,86.72 L548.513618,87.7779513 C548.877998,87.7600021 549.245452,87.7406817 549.616,87.72 L547.888,105.576 C522.671535,107.910858 507.003715,102.842361 497.929006,93.3715124 C497.587134,93.0439118 497.253846,92.7105326 496.929006,92.3715124 C496.587134,92.0439118 496.253846,91.7105326 495.929006,91.3715124 C495.587134,91.0439118 495.253846,90.7105326 494.929006,90.3715124 C494.587134,90.0439118 494.253846,89.7105326 493.929006,89.3715124 C493.587134,89.0439118 493.253846,88.7105326 492.929006,88.3715124 C492.587134,88.0439118 492.253846,87.7105326 491.929006,87.3715124 C491.587134,87.0439118 491.253846,86.7105326 490.929006,86.3715124 C490.587134,86.0439118 490.253846,85.7105326 489.929006,85.3715124 C489.587134,85.0439118 489.253846,84.7105326 488.929006,84.3715124 C488.587134,84.0439118 488.253846,83.7105326 487.929006,83.3715124 C487.587134,83.0439118 487.253846,82.7105326 486.929006,82.3715124 C486.587134,82.0439118 486.253846,81.7105326 485.929006,81.3715124 C477.467101,73.2628476 474.264,61.6139003 474.264,48.512 C474.264,23.312 489.672,1.568 534.6,1.28 L534.657671,2.28923781 C534.97032,2.28510427 535.284432,2.28202287 535.6,2.28 L535.657671,3.28923781 C535.97032,3.28510427 536.284432,3.28202287 536.6,3.28 L536.657671,4.28923781 C536.97032,4.28510427 537.284432,4.28202287 537.6,4.28 L537.657671,5.28923781 C537.97032,5.28510427 538.284432,5.28202287 538.6,5.28 L538.657671,6.28923781 C538.97032,6.28510427 539.284432,6.28202287 539.6,6.28 L539.657671,7.28923781 C539.97032,7.28510427 540.284432,7.28202287 540.6,7.28 L540.657671,8.28923781 C540.97032,8.28510427 541.284432,8.28202287 541.6,8.28 L541.657671,9.28923781 C541.97032,9.28510427 542.284432,9.28202287 542.6,9.28 L542.657671,10.2892378 C542.97032,10.2851043 543.284432,10.2820229 543.6,10.28 L543.657671,11.2892378 C543.97032,11.2851043 544.284432,11.2820229 544.6,11.28 L544.657671,12.2892378 C544.97032,12.2851043 545.284432,12.2820229 545.6,12.28 L545.657671,13.2892378 C545.97032,13.2851043 546.284432,13.2820229 546.6,13.28 L546.657671,14.2892378 C546.97032,14.2851043 547.284432,14.2820229 547.6,14.28 L548.752,34.44 C514.192,32.712 509.296,40.344 509.296,58.776 C509.296,64.2330331 509.827704,68.8311601 511.056831,72.6464166 L511.056831,72.6464166 Z M349.888,104 L348.888,104 L348.888,103 L347.888,103 L347.888,102 L346.888,102 L346.888,101 L345.888,101 L345.888,100 L344.888,100 L344.888,99 L343.888,99 L343.888,98 L342.888,98 L342.888,97 L341.888,97 L341.888,96 L340.888,96 L340.888,95 L339.888,95 L339.888,94 L338.888,94 L338.888,93 L337.888,93 L337.888,92 L336.888,92 L336.888,62.624 L308.808,3.152 L331.128,2.288 L331.560234,3.30997802 L332.128,3.288 L332.560234,4.30997802 L333.128,4.288 L333.560234,5.30997802 L334.128,5.288 L334.560234,6.30997802 L335.128,6.288 L335.560234,7.30997802 L336.128,7.288 L336.560234,8.30997802 L337.128,8.288 L337.560234,9.30997802 L338.128,9.288 L338.560234,10.309978 L339.128,10.288 L339.560234,11.309978 L340.128,11.288 L340.560234,12.309978 L341.128,12.288 L341.560234,13.309978 L342.128,13.288 L342.560234,14.309978 L343.128,14.288 L343.560234,15.309978 L344.128,15.288 L351.793311,33.4119127 L364.248,2.72 L385.992,2.72 L385.524688,3.72 L386.992,3.72 L386.524688,4.72 L387.992,4.72 L387.524688,5.72 L388.992,5.72 L388.524688,6.72 L389.992,6.72 L389.524688,7.72 L390.992,7.72 L390.524688,8.72 L391.992,8.72 L391.524688,9.72 L392.992,9.72 L392.524688,10.72 L393.992,10.72 L393.524688,11.72 L394.992,11.72 L394.524688,12.72 L395.992,12.72 L395.524688,13.72 L396.992,13.72 L396.524688,14.72 L397.992,14.72 L397.524688,15.72 L398.992,15.72 L371.2,75.192 L371.2,105 L349.888,105 L349.888,104 L349.888,104 Z M258.752813,94.5841461 C258.412162,94.2577421 258.078826,93.9243849 257.752813,93.5841461 C257.412162,93.2577421 257.078826,92.9243849 256.752813,92.5841461 C256.412162,92.2577421 256.078826,91.9243849 255.752813,91.5841461 C255.412162,91.2577421 255.078826,90.9243849 254.752813,90.5841461 C254.412162,90.2577421 254.078826,89.9243849 253.752813,89.5841461 C253.412162,89.2577421 253.078826,88.9243849 252.752813,88.5841461 C252.412162,88.2577421 252.078826,87.9243849 251.752813,87.5841461 C251.412162,87.2577421 251.078826,86.9243849 250.752813,86.5841461 C250.412162,86.2577421 250.078826,85.9243849 249.752813,85.5841461 C249.412162,85.2577421 249.078826,84.9243849 248.752813,84.5841461 C248.412162,84.2577421 248.078826,83.9243849 247.752813,83.5841461 C247.412162,83.2577421 247.078826,82.9243849 246.752813,82.5841461 C238.900842,75.0605818 234.936,63.8428532 234.936,49.808 C234.936,23.312 249.048,2.288 294.264,1.28 L294.329815,2.30379569 C294.639717,2.29490878 294.951114,2.28697517 295.264,2.28 L295.329815,3.30379569 C295.639717,3.29490878 295.951114,3.28697517 296.264,3.28 L296.329815,4.30379569 C296.639717,4.29490878 296.951114,4.28697517 297.264,4.28 L297.329815,5.30379569 C297.639717,5.29490878 297.951114,5.28697517 298.264,5.28 L298.329815,6.30379569 C298.639717,6.29490878 298.951114,6.28697517 299.264,6.28 L299.329815,7.30379569 C299.639717,7.29490878 299.951114,7.28697517 300.264,7.28 L300.329815,8.30379569 C300.639717,8.29490878 300.951114,8.28697517 301.264,8.28 L301.329815,9.30379569 C301.639717,9.29490878 301.951114,9.28697517 302.264,9.28 L302.329815,10.3037957 C302.639717,10.2949088 302.951114,10.2869752 303.264,10.28 L303.329815,11.3037957 C303.639717,11.2949088 303.951114,11.2869752 304.264,11.28 L304.329815,12.3037957 C304.639717,12.2949088 304.951114,12.2869752 305.264,12.28 L305.329815,13.3037957 C305.639717,13.2949088 305.951114,13.2869752 306.264,13.28 L306.329815,14.3037957 C306.639717,14.2949088 306.951114,14.2869752 307.264,14.28 L308.56,34.44 C273.856,31.704 269.536,42.648 269.536,59.496 C269.536,65.7024986 270.230215,70.9399882 271.746985,75.2268029 C274.503954,76.1551081 277.678375,76.7045665 281.304,76.88 C280.872,68.528 280.44,56.288 280.296,47.36 L299.448,47.36 C299.448,47.6949704 299.448048,48.0282983 299.448143,48.360003 L300.448,48.36 C300.448,48.6949704 300.448048,49.0282983 300.448143,49.360003 L301.448,49.36 C301.448,49.6949704 301.448048,50.0282983 301.448143,50.360003 L302.448,50.36 C302.448,50.6949704 302.448048,51.0282983 302.448143,51.360003 L303.448,51.36 C303.448,51.6949704 303.448048,52.0282983 303.448143,52.360003 L304.448,52.36 C304.448,52.6949704 304.448048,53.0282983 304.448143,53.360003 L305.448,53.36 C305.448,53.6949704 305.448048,54.0282983 305.448143,54.360003 L306.448,54.36 C306.448,54.6949704 306.448048,55.0282983 306.448143,55.360003 L307.448,55.36 C307.448,55.6949704 307.448048,56.0282983 307.448143,56.360003 L308.448,56.36 C308.448,56.6949704 308.448048,57.0282983 308.448143,57.360003 L309.448,57.36 C309.448,57.6949704 309.448048,58.0282983 309.448143,58.360003 L310.448,58.36 C310.448,58.6949704 310.448048,59.0282983 310.448143,59.360003 L311.448,59.36 C311.448,59.6949704 311.448048,60.0282983 311.448143,60.360003 L312.448,60.36 C312.448,78.648 312.592,92.04 312.592,103.704 C287.23671,109.338509 269.2203,105.508394 258.752813,94.5841461 L258.752813,94.5841461 Z M189.661565,66.22 L190.336,105 L170.896,105 L170.896,104 L169.896,104 L169.896,103 L168.896,103 L168.896,102 L167.896,102 L167.896,101 L166.896,101 L166.896,100 L165.896,100 L165.896,99 L164.896,99 L164.896,98 L163.896,98 L163.896,97 L162.896,97 L162.896,96 L161.896,96 L161.896,95 L160.896,95 L160.896,94 L159.896,94 L159.896,93 L158.896,93 L158.896,92 L157.896,92 L157.896,2.72 L176.328,2.72 L176.826551,3.72 L177.328,3.72 L177.826551,4.72 L178.328,4.72 L178.826551,5.72 L179.328,5.72 L179.826551,6.72 L180.328,6.72 L180.826551,7.72 L181.328,7.72 L181.826551,8.72 L182.328,8.72 L182.826551,9.72 L183.328,9.72 L183.826551,10.72 L184.328,10.72 L184.826551,11.72 L185.328,11.72 L185.826551,12.72 L186.328,12.72 L186.826551,13.72 L187.328,13.72 L187.826551,14.72 L188.328,14.72 L188.826551,15.72 L189.328,15.72 L201.457199,40.0489157 L200.808,2.72 L220.248,2.72 L220.248,3.72 L221.248,3.72 L221.248,4.72 L222.248,4.72 L222.248,5.72 L223.248,5.72 L223.248,6.72 L224.248,6.72 L224.248,7.72 L225.248,7.72 L225.248,8.72 L226.248,8.72 L226.248,9.72 L227.248,9.72 L227.248,10.72 L228.248,10.72 L228.248,11.72 L229.248,11.72 L229.248,12.72 L230.248,12.72 L230.248,13.72 L231.248,13.72 L231.248,14.72 L232.248,14.72 L232.248,15.72 L233.248,15.72 L233.248,105 L216.112,105 L215.590261,104 L215.112,104 L214.590261,103 L214.112,103 L213.590261,102 L213.112,102 L212.590261,101 L212.112,101 L211.590261,100 L211.112,100 L210.590261,99 L210.112,99 L209.590261,98 L209.112,98 L208.590261,97 L208.112,97 L207.590261,96 L207.112,96 L206.590261,95 L206.112,95 L205.590261,94 L205.112,94 L204.590261,93 L204.112,93 L203.590261,92 L203.112,92 L189.661565,66.22 L189.661565,66.22 Z M133.6,75.728 L140.472,75.728 L140.383504,76.728 L141.472,76.728 L141.383504,77.728 L142.472,77.728 L142.383504,78.728 L143.472,78.728 L143.383504,79.728 L144.472,79.728 L144.383504,80.728 L145.472,80.728 L145.383504,81.728 L146.472,81.728 L146.383504,82.728 L147.472,82.728 L147.383504,83.728 L148.472,83.728 L148.383504,84.728 L149.472,84.728 L149.383504,85.728 L150.472,85.728 L150.383504,86.728 L151.472,86.728 L151.383504,87.728 L152.472,87.728 L152.383504,88.728 L153.472,88.728 L152.032,105 L93.424,105 L93.424,104 L92.424,104 L92.424,103 L91.424,103 L91.424,102 L90.424,102 L90.424,101 L89.424,101 L89.424,100 L88.424,100 L88.424,99 L87.424,99 L87.424,98 L86.424,98 L86.424,97 L85.424,97 L85.424,96 L84.424,96 L84.424,95 L83.424,95 L83.424,94 L82.424,94 L82.424,93 L81.424,93 L81.424,92 L80.424,92 L80.424,75.728 L99.432,75.728 L99.432,31.992 L93.424,31.992 L93.424,30.992 L92.424,30.992 L92.424,29.992 L91.424,29.992 L91.424,28.992 L90.424,28.992 L90.424,27.992 L89.424,27.992 L89.424,26.992 L88.424,26.992 L88.424,25.992 L87.424,25.992 L87.424,24.992 L86.424,24.992 L86.424,23.992 L85.424,23.992 L85.424,22.992 L84.424,22.992 L84.424,21.992 L83.424,21.992 L83.424,20.992 L82.424,20.992 L82.424,19.992 L81.424,19.992 L81.424,18.992 L80.424,18.992 L80.424,2.72 L139.608,2.72 L139.608,3.72 L140.608,3.72 L140.608,4.72 L141.608,4.72 L141.608,5.72 L142.608,5.72 L142.608,6.72 L143.608,6.72 L143.608,7.72 L144.608,7.72 L144.608,8.72 L145.608,8.72 L145.608,9.72 L146.608,9.72 L146.608,10.72 L147.608,10.72 L147.608,11.72 L148.608,11.72 L148.608,12.72 L149.608,12.72 L149.608,13.72 L150.608,13.72 L150.608,14.72 L151.608,14.72 L151.608,15.72 L152.608,15.72 L152.608,31.992 L133.6,31.992 L133.6,75.728 L133.6,75.728 Z M14.8,104 L13.8,104 L13.8,103 L12.8,103 L12.8,102 L11.8,102 L11.8,101 L10.8,101 L10.8,100 L9.8,100 L9.8,99 L8.8,99 L8.8,98 L7.8,98 L7.8,97 L6.8,97 L6.8,96 L5.8,96 L5.8,95 L4.8,95 L4.8,94 L3.8,94 L3.8,93 L2.8,93 L2.8,92 L1.8,92 L1.8,2.72 C30.9782566,-0.854819513 49.7196936,2.57145733 58.8941967,12.302922 C59.2393095,12.6284907 59.5726296,12.9618333 59.8941967,13.302922 C60.2393081,13.6284893 60.572629,13.9618326 60.8941967,14.302922 C61.2393081,14.6284893 61.572629,14.9618326 61.8941967,15.302922 C62.2393081,15.6284893 62.572629,15.9618326 62.8941967,16.302922 C63.2393081,16.6284893 63.572629,16.9618326 63.8941967,17.302922 C64.2393081,17.6284893 64.572629,17.9618326 64.8941967,18.302922 C65.2393081,18.6284893 65.572629,18.9618326 65.8941967,19.302922 C66.2393081,19.6284893 66.572629,19.9618326 66.8941967,20.302922 C67.2393081,20.6284893 67.572629,20.9618326 67.8941967,21.302922 C68.2393081,21.6284893 68.572629,21.9618326 68.8941967,22.302922 C69.2393081,22.6284893 69.572629,22.9618326 69.8941967,23.302922 C70.2393081,23.6284893 70.572629,23.9618326 70.8941967,24.302922 C76.068138,29.1838569 78.592,35.8125408 78.592,44.088 C78.592,66.12 60.592,76.776 35.824,80.376 L35.824,105 L14.8,105 L14.8,104 L14.8,104 Z" id="PINGY-CLI-Shadow" fill-opacity="0.3" fill="#000000"></path>
            <path d="M21.824,91 L0.8,91 L0.8,1.72 C44.288,-3.608 64.592,6.616 64.592,30.088 C64.592,52.12 46.592,62.776 21.824,66.376 L21.824,91 Z M44,34.408 C44,22.168 36.512,16.696 21.824,17.992 L21.824,49.24 C36.656,51.4 44,47.656 44,34.408 Z M119.6,17.992 L138.608,17.992 L138.608,1.72 L79.424,1.72 L79.424,17.992 L98.432,17.992 L98.432,74.728 L79.424,74.728 L79.424,91 L138.032,91 L139.472,74.728 L119.6,74.728 L119.6,17.992 Z M202.112,91 L219.248,91 L219.248,1.72 L199.808,1.72 L200.672,51.4 L200.096,51.4 L175.328,1.72 L156.896,1.72 L156.896,91 L176.336,91 L175.472,41.32 L176.192,41.32 L202.112,91 Z M298.592,89.704 C298.592,78.04 298.448,64.648 298.448,46.36 L279.296,46.36 C279.44,55.288 279.872,67.528 280.304,75.88 C262.448,75.016 255.536,65.08 255.536,45.496 C255.536,28.648 259.856,17.704 294.56,20.44 L293.264,0.28 C248.048,1.288 233.936,22.312 233.936,48.808 C233.936,81.784 255.824,99.208 298.592,89.704 Z M357.2,91 L357.2,61.192 L384.992,1.72 L363.248,1.72 L347.12,41.464 L330.128,1.288 L307.808,2.152 L335.888,61.624 L335.888,91 L357.2,91 Z M535.616,73.72 C504.656,75.448 495.296,67.672 495.296,44.776 C495.296,26.344 500.192,18.712 534.752,20.44 L533.6,0.28 C488.672,0.568 473.264,22.312 473.264,47.512 C473.264,74.872 487.232,95.896 533.888,91.576 L535.616,73.72 Z M614.672,91 L616.4,73.432 L579.248,73.432 L579.248,1.72 L557.936,1.72 L557.936,91 L614.672,91 Z M674,17.992 L693.008,17.992 L693.008,1.72 L633.824,1.72 L633.824,17.992 L652.832,17.992 L652.832,74.728 L633.824,74.728 L633.824,91 L692.432,91 L693.872,74.728 L674,74.728 L674,17.992 Z" id="PINGY-CLI" fill="#FFFFFF"></path>
        </g>
    </g>
</svg>